<?xml version="1.0" encoding="UTF-8"?><svg id="uuid-66d9984b-a7e2-4f64-ac20-30dd39a9e2d1" xmlns="http://www.w3.org/2000/svg" viewBox="0 0 106.63 76.26"><path d="m79.74,46.22l-10.39-15.78c7.53-3.06,11.35-7.83,11.35-14.19,0-4.62-1.84-8.38-5.62-11.49-3.88-3.15-9.17-4.74-15.7-4.74H21.08v10.79h4.29v35.43h-4.29v10.78h28.08v-10.78h-4.43v-13.57h6.8l8.54,13.57h-4.65v10.78h30.16v-10.78h-5.83ZM44.72,10.79h8.59c2.73,0,4.81.72,6.2,2.15l.02.02c.94.93,1.4,2.06,1.4,3.47,0,1.49-.63,2.75-1.93,3.85h0c-1.67,1.31-4.22,1.97-7.58,1.97h-6.68v-11.47Z" fill="#c03" stroke-width="0"/><path d="m0,76.11v-12.85h7.32l-.33,2.11H2.63v2.98h3.64v2.11h-3.64v3.44h4.86v2.22H0Z" fill="#c03" stroke-width="0"/><path d="m15.57,76.11l-2.2-4.92c-.72-1.61-1.5-3.42-1.74-4.22.09,1.05.11,2.57.13,3.64l.07,5.49h-2.5v-12.85h2.87l2.46,5.14c.65,1.37,1.15,2.72,1.41,3.64-.09-1-.19-2.64-.2-3.53l-.06-5.25h2.46v12.85h-2.7Z" fill="#c03" stroke-width="0"/><path d="m26.25,76.26c-1.92,0-3.35-.63-4.38-1.96-.94-1.2-1.37-2.57-1.37-4.49,0-2.72.89-4.64,2.68-5.84.94-.63,1.9-.91,3.13-.91,1.55,0,2.96.5,4.09,1.48l-1.37,1.61c-.83-.68-1.7-1-2.68-1-.76,0-1.41.22-1.85.65-.87.83-1.09,2.22-1.09,4.14s.31,3.01.96,3.66c.48.46,1.18.72,2.02.72.57,0,1.04-.09,1.46-.31v-2.92h-1.96l-.33-2.11h4.98v6.14c-1.31.78-2.76,1.15-4.27,1.15Z" fill="#c03" stroke-width="0"/><path d="m33.11,76.11v-12.85h2.7v12.85h-2.7Z" fill="#c03" stroke-width="0"/><path d="m44.82,76.11l-2.2-4.92c-.72-1.61-1.5-3.42-1.74-4.22.09,1.05.11,2.57.13,3.64l.07,5.49h-2.5v-12.85h2.87l2.46,5.14c.65,1.37,1.15,2.72,1.41,3.64-.09-1-.19-2.64-.2-3.53l-.06-5.25h2.46v12.85h-2.7Z" fill="#c03" stroke-width="0"/><path d="m50.3,76.11v-12.85h7.32l-.33,2.11h-4.36v2.98h3.64v2.11h-3.64v3.44h4.86v2.22h-7.49Z" fill="#c03" stroke-width="0"/><path d="m59.64,76.11v-12.85h7.32l-.33,2.11h-4.37v2.98h3.64v2.11h-3.64v3.44h4.86v2.22h-7.49Z" fill="#c03" stroke-width="0"/><path d="m75.25,76.11c-.5-.85-.7-1.2-1.2-2.11-1.28-2.31-1.66-2.94-2.13-3.14-.13-.06-.24-.09-.41-.11v5.36h-2.53v-12.85h4.79c2.27,0,3.77,1.52,3.77,3.77,0,1.92-1.28,3.51-2.87,3.55.26.2.37.31.54.54.67.83,2.63,4.18,3.09,4.99h-3.05Zm-1.35-10.6c-.3-.11-.83-.18-1.46-.18h-.92v3.48h.87c1.11,0,1.59-.11,1.94-.43.31-.3.5-.76.5-1.29,0-.8-.31-1.35-.92-1.57Z" fill="#c03" stroke-width="0"/><path d="m79.97,76.11v-12.85h2.7v12.85h-2.7Z" fill="#c03" stroke-width="0"/><path d="m91.68,76.11l-2.2-4.92c-.72-1.61-1.5-3.42-1.74-4.22.09,1.05.11,2.57.13,3.64l.07,5.49h-2.5v-12.85h2.87l2.46,5.14c.65,1.37,1.15,2.72,1.41,3.64-.09-1-.19-2.64-.2-3.53l-.06-5.25h2.46v12.85h-2.7Z" fill="#c03" stroke-width="0"/><path d="m102.36,76.26c-1.92,0-3.35-.63-4.38-1.96-.94-1.2-1.37-2.57-1.37-4.49,0-2.72.89-4.64,2.68-5.84.94-.63,1.91-.91,3.13-.91,1.55,0,2.96.5,4.09,1.48l-1.37,1.61c-.83-.68-1.7-1-2.68-1-.76,0-1.41.22-1.85.65-.87.83-1.09,2.22-1.09,4.14s.31,3.01.96,3.66c.48.46,1.18.72,2.02.72.57,0,1.04-.09,1.46-.31v-2.92h-1.96l-.33-2.11h4.97v6.14c-1.31.78-2.75,1.15-4.27,1.15Z" fill="#c03" stroke-width="0"/></svg>